<svg id="图层_1" data-name="图层 1" xmlns="http://www.w3.org/2000/svg" viewBox="0 0 51.03 51.03"><defs><style>.cls-1{fill:#a8a8a8;}</style></defs><path class="cls-1" d="M19.57,23.21a3.59,3.59,0,0,0-3.44,3.72,3.59,3.59,0,0,0,3.44,3.73A3.59,3.59,0,0,0,23,26.93,3.59,3.59,0,0,0,19.57,23.21Z"/><path class="cls-1" d="M31.46,23.21A3.59,3.59,0,0,0,28,26.93a3.45,3.45,0,1,0,6.88,0A3.59,3.59,0,0,0,31.46,23.21Z"/><path class="cls-1" d="M25.52,0A25.52,25.52,0,1,0,51,25.52,25.51,25.51,0,0,0,25.52,0ZM42.69,34.41a83.65,83.65,0,0,1-8.52,4.45L32.26,36.1a20.48,20.48,0,0,0,2.65-1.21l-.8-1.4a16.59,16.59,0,0,1-8.59,2.31,16.6,16.6,0,0,1-8.6-2.31l-.8,1.4a20.48,20.48,0,0,0,2.65,1.21l-1.9,2.76a83.06,83.06,0,0,1-8.53-4.45c-.9-13,5.24-20.2,5.24-20.2a31,31,0,0,1,6.78-2l1.16,2.33a18,18,0,0,1,8,0l1.16-2.33a31,31,0,0,1,6.78,2S43.59,21.45,42.69,34.41Z"/></svg>